<svg width="207" height="196" viewBox="0 0 207 196" fill="none" xmlns="http://www.w3.org/2000/svg">
<path d="M4.67188 186.93C3.38542 186.56 2.44792 186.107 1.85938 185.57C1.27604 185.029 0.984375 184.362 0.984375 183.57C0.984375 182.674 1.34115 181.935 2.05469 181.352C2.77344 180.763 3.70573 180.469 4.85156 180.469C5.63281 180.469 6.32812 180.62 6.9375 180.922C7.55208 181.224 8.02604 181.641 8.35938 182.172C8.69792 182.703 8.86719 183.284 8.86719 183.914H7.35938C7.35938 183.227 7.14062 182.688 6.70312 182.297C6.26562 181.901 5.64844 181.703 4.85156 181.703C4.11198 181.703 3.53385 181.867 3.11719 182.195C2.70573 182.518 2.5 182.969 2.5 183.547C2.5 184.01 2.69531 184.404 3.08594 184.727C3.48177 185.044 4.15104 185.336 5.09375 185.602C6.04167 185.867 6.78125 186.161 7.3125 186.484C7.84896 186.802 8.24479 187.174 8.5 187.602C8.76042 188.029 8.89062 188.531 8.89062 189.109C8.89062 190.031 8.53125 190.771 7.8125 191.328C7.09375 191.88 6.13281 192.156 4.92969 192.156C4.14844 192.156 3.41927 192.008 2.74219 191.711C2.0651 191.409 1.54167 190.997 1.17188 190.477C0.807292 189.956 0.625 189.365 0.625 188.703H2.13281C2.13281 189.391 2.38542 189.935 2.89062 190.336C3.40104 190.732 4.08073 190.93 4.92969 190.93C5.72135 190.93 6.32812 190.768 6.75 190.445C7.17188 190.122 7.38281 189.682 7.38281 189.125C7.38281 188.568 7.1875 188.138 6.79688 187.836C6.40625 187.529 5.69792 187.227 4.67188 186.93ZM15.8125 191.164C15.25 191.826 14.4245 192.156 13.3359 192.156C12.4349 192.156 11.7474 191.896 11.2734 191.375C10.8047 190.849 10.5677 190.073 10.5625 189.047V183.547H12.0078V189.008C12.0078 190.289 12.5286 190.93 13.5703 190.93C14.6745 190.93 15.4089 190.518 15.7734 189.695V183.547H17.2188V192H15.8438L15.8125 191.164ZM24.6406 192C24.5573 191.833 24.4896 191.536 24.4375 191.109C23.7656 191.807 22.9635 192.156 22.0312 192.156C21.1979 192.156 20.513 191.922 19.9766 191.453C19.4453 190.979 19.1797 190.38 19.1797 189.656C19.1797 188.776 19.513 188.094 20.1797 187.609C20.8516 187.12 21.7943 186.875 23.0078 186.875H24.4141V186.211C24.4141 185.706 24.263 185.305 23.9609 185.008C23.6589 184.706 23.2135 184.555 22.625 184.555C22.1094 184.555 21.6771 184.685 21.3281 184.945C20.9792 185.206 20.8047 185.521 20.8047 185.891H19.3516C19.3516 185.469 19.5 185.062 19.7969 184.672C20.099 184.276 20.5052 183.964 21.0156 183.734C21.5312 183.505 22.0964 183.391 22.7109 183.391C23.6849 183.391 24.4479 183.635 25 184.125C25.5521 184.609 25.8385 185.279 25.8594 186.133V190.023C25.8594 190.799 25.9583 191.417 26.1562 191.875V192H24.6406ZM22.2422 190.898C22.6953 190.898 23.125 190.781 23.5312 190.547C23.9375 190.312 24.2318 190.008 24.4141 189.633V187.898H23.2812C21.5104 187.898 20.625 188.417 20.625 189.453C20.625 189.906 20.776 190.26 21.0781 190.516C21.3802 190.771 21.7682 190.898 22.2422 190.898ZM33.0469 189.758C33.0469 189.367 32.8984 189.065 32.6016 188.852C32.3099 188.633 31.7969 188.445 31.0625 188.289C30.3333 188.133 29.7526 187.945 29.3203 187.727C28.8932 187.508 28.5755 187.247 28.3672 186.945C28.1641 186.643 28.0625 186.284 28.0625 185.867C28.0625 185.174 28.3542 184.589 28.9375 184.109C29.526 183.63 30.276 183.391 31.1875 183.391C32.1458 183.391 32.9219 183.638 33.5156 184.133C34.1146 184.628 34.4141 185.26 34.4141 186.031H32.9609C32.9609 185.635 32.7917 185.294 32.4531 185.008C32.1198 184.721 31.6979 184.578 31.1875 184.578C30.6615 184.578 30.25 184.693 29.9531 184.922C29.6562 185.151 29.5078 185.451 29.5078 185.82C29.5078 186.169 29.6458 186.432 29.9219 186.609C30.1979 186.786 30.6953 186.956 31.4141 187.117C32.138 187.279 32.724 187.471 33.1719 187.695C33.6198 187.919 33.9505 188.19 34.1641 188.508C34.3828 188.82 34.4922 189.203 34.4922 189.656C34.4922 190.411 34.1901 191.018 33.5859 191.477C32.9818 191.93 32.1979 192.156 31.2344 192.156C30.5573 192.156 29.9583 192.036 29.4375 191.797C28.9167 191.557 28.5078 191.224 28.2109 190.797C27.9193 190.365 27.7734 189.898 27.7734 189.398H29.2188C29.2448 189.883 29.4375 190.268 29.7969 190.555C30.1615 190.836 30.6406 190.977 31.2344 190.977C31.7812 190.977 32.2188 190.867 32.5469 190.648C32.8802 190.424 33.0469 190.128 33.0469 189.758ZM42.3047 181.5V183.547H43.8828V184.664H42.3047V189.906C42.3047 190.245 42.375 190.5 42.5156 190.672C42.6562 190.839 42.8958 190.922 43.2344 190.922C43.401 190.922 43.6302 190.891 43.9219 190.828V192C43.5417 192.104 43.1719 192.156 42.8125 192.156C42.1667 192.156 41.6797 191.961 41.3516 191.57C41.0234 191.18 40.8594 190.625 40.8594 189.906V184.664H39.3203V183.547H40.8594V181.5H42.3047ZM50.7969 192C50.7135 191.833 50.6458 191.536 50.5938 191.109C49.9219 191.807 49.1198 192.156 48.1875 192.156C47.3542 192.156 46.6693 191.922 46.1328 191.453C45.6016 190.979 45.3359 190.38 45.3359 189.656C45.3359 188.776 45.6693 188.094 46.3359 187.609C47.0078 187.12 47.9505 186.875 49.1641 186.875H50.5703V186.211C50.5703 185.706 50.4193 185.305 50.1172 185.008C49.8151 184.706 49.3698 184.555 48.7812 184.555C48.2656 184.555 47.8333 184.685 47.4844 184.945C47.1354 185.206 46.9609 185.521 46.9609 185.891H45.5078C45.5078 185.469 45.6562 185.062 45.9531 184.672C46.2552 184.276 46.6615 183.964 47.1719 183.734C47.6875 183.505 48.2526 183.391 48.8672 183.391C49.8411 183.391 50.6042 183.635 51.1562 184.125C51.7083 184.609 51.9948 185.279 52.0156 186.133V190.023C52.0156 190.799 52.1146 191.417 52.3125 191.875V192H50.7969ZM48.3984 190.898C48.8516 190.898 49.2812 190.781 49.6875 190.547C50.0938 190.312 50.388 190.008 50.5703 189.633V187.898H49.4375C47.6667 187.898 46.7812 188.417 46.7812 189.453C46.7812 189.906 46.9323 190.26 47.2344 190.516C47.5365 190.771 47.9245 190.898 48.3984 190.898ZM58.3672 184.844C58.1484 184.807 57.9115 184.789 57.6562 184.789C56.7083 184.789 56.0651 185.193 55.7266 186V192H54.2812V183.547H55.6875L55.7109 184.523C56.1849 183.768 56.8568 183.391 57.7266 183.391C58.0078 183.391 58.2214 183.427 58.3672 183.5V184.844ZM63.0547 192.156C61.9089 192.156 60.9766 191.781 60.2578 191.031C59.5391 190.276 59.1797 189.268 59.1797 188.008V187.742C59.1797 186.904 59.3385 186.156 59.6562 185.5C59.9792 184.839 60.4271 184.323 61 183.953C61.5781 183.578 62.2031 183.391 62.875 183.391C63.974 183.391 64.8281 183.753 65.4375 184.477C66.0469 185.201 66.3516 186.237 66.3516 187.586V188.188H60.625C60.6458 189.021 60.888 189.695 61.3516 190.211C61.8203 190.721 62.4141 190.977 63.1328 190.977C63.6432 190.977 64.0755 190.872 64.4297 190.664C64.7839 190.456 65.0938 190.18 65.3594 189.836L66.2422 190.523C65.5339 191.612 64.4714 192.156 63.0547 192.156ZM62.875 184.578C62.2917 184.578 61.8021 184.792 61.4062 185.219C61.0104 185.641 60.7656 186.234 60.6719 187H64.9062V186.891C64.8646 186.156 64.6667 185.589 64.3125 185.188C63.9583 184.781 63.4792 184.578 62.875 184.578ZM68.7422 192V184.664H67.4062V183.547H68.7422V182.68C68.7422 181.773 68.9844 181.073 69.4688 180.578C69.9531 180.083 70.638 179.836 71.5234 179.836C71.8568 179.836 72.1875 179.88 72.5156 179.969L72.4375 181.141C72.1927 181.094 71.9323 181.07 71.6562 181.07C71.1875 181.07 70.8255 181.208 70.5703 181.484C70.3151 181.755 70.1875 182.146 70.1875 182.656V183.547H71.9922V184.664H70.1875V192H68.7422ZM78.8125 192C78.7292 191.833 78.6615 191.536 78.6094 191.109C77.9375 191.807 77.1354 192.156 76.2031 192.156C75.3698 192.156 74.6849 191.922 74.1484 191.453C73.6172 190.979 73.3516 190.38 73.3516 189.656C73.3516 188.776 73.6849 188.094 74.3516 187.609C75.0234 187.12 75.9661 186.875 77.1797 186.875H78.5859V186.211C78.5859 185.706 78.4349 185.305 78.1328 185.008C77.8307 184.706 77.3854 184.555 76.7969 184.555C76.2812 184.555 75.849 184.685 75.5 184.945C75.151 185.206 74.9766 185.521 74.9766 185.891H73.5234C73.5234 185.469 73.6719 185.062 73.9688 184.672C74.2708 184.276 74.6771 183.964 75.1875 183.734C75.7031 183.505 76.2682 183.391 76.8828 183.391C77.8568 183.391 78.6198 183.635 79.1719 184.125C79.724 184.609 80.0104 185.279 80.0312 186.133V190.023C80.0312 190.799 80.1302 191.417 80.3281 191.875V192H78.8125ZM76.4141 190.898C76.8672 190.898 77.2969 190.781 77.7031 190.547C78.1094 190.312 78.4036 190.008 78.5859 189.633V187.898H77.4531C75.6823 187.898 74.7969 188.417 74.7969 189.453C74.7969 189.906 74.9479 190.26 75.25 190.516C75.5521 190.771 75.9401 190.898 76.4141 190.898ZM87.2188 189.758C87.2188 189.367 87.0703 189.065 86.7734 188.852C86.4818 188.633 85.9688 188.445 85.2344 188.289C84.5052 188.133 83.9245 187.945 83.4922 187.727C83.0651 187.508 82.7474 187.247 82.5391 186.945C82.3359 186.643 82.2344 186.284 82.2344 185.867C82.2344 185.174 82.526 184.589 83.1094 184.109C83.6979 183.63 84.4479 183.391 85.3594 183.391C86.3177 183.391 87.0938 183.638 87.6875 184.133C88.2865 184.628 88.5859 185.26 88.5859 186.031H87.1328C87.1328 185.635 86.9635 185.294 86.625 185.008C86.2917 184.721 85.8698 184.578 85.3594 184.578C84.8333 184.578 84.4219 184.693 84.125 184.922C83.8281 185.151 83.6797 185.451 83.6797 185.82C83.6797 186.169 83.8177 186.432 84.0938 186.609C84.3698 186.786 84.8672 186.956 85.5859 187.117C86.3099 187.279 86.8958 187.471 87.3438 187.695C87.7917 187.919 88.1224 188.19 88.3359 188.508C88.5547 188.82 88.6641 189.203 88.6641 189.656C88.6641 190.411 88.362 191.018 87.7578 191.477C87.1536 191.93 86.3698 192.156 85.4062 192.156C84.7292 192.156 84.1302 192.036 83.6094 191.797C83.0885 191.557 82.6797 191.224 82.3828 190.797C82.0911 190.365 81.9453 189.898 81.9453 189.398H83.3906C83.4167 189.883 83.6094 190.268 83.9688 190.555C84.3333 190.836 84.8125 190.977 85.4062 190.977C85.9531 190.977 86.3906 190.867 86.7188 190.648C87.0521 190.424 87.2188 190.128 87.2188 189.758ZM99.7344 192C99.651 191.833 99.5833 191.536 99.5312 191.109C98.8594 191.807 98.0573 192.156 97.125 192.156C96.2917 192.156 95.6068 191.922 95.0703 191.453C94.5391 190.979 94.2734 190.38 94.2734 189.656C94.2734 188.776 94.6068 188.094 95.2734 187.609C95.9453 187.12 96.888 186.875 98.1016 186.875H99.5078V186.211C99.5078 185.706 99.3568 185.305 99.0547 185.008C98.7526 184.706 98.3073 184.555 97.7188 184.555C97.2031 184.555 96.7708 184.685 96.4219 184.945C96.0729 185.206 95.8984 185.521 95.8984 185.891H94.4453C94.4453 185.469 94.5938 185.062 94.8906 184.672C95.1927 184.276 95.599 183.964 96.1094 183.734C96.625 183.505 97.1901 183.391 97.8047 183.391C98.7786 183.391 99.5417 183.635 100.094 184.125C100.646 184.609 100.932 185.279 100.953 186.133V190.023C100.953 190.799 101.052 191.417 101.25 191.875V192H99.7344ZM97.3359 190.898C97.7891 190.898 98.2188 190.781 98.625 190.547C99.0312 190.312 99.3255 190.008 99.5078 189.633V187.898H98.375C96.6042 187.898 95.7188 188.417 95.7188 189.453C95.7188 189.906 95.8698 190.26 96.1719 190.516C96.474 190.771 96.862 190.898 97.3359 190.898ZM110.359 187.867C110.359 189.154 110.065 190.19 109.477 190.977C108.888 191.763 108.091 192.156 107.086 192.156C106.06 192.156 105.253 191.831 104.664 191.18V195.25H103.219V183.547H104.539L104.609 184.484C105.198 183.755 106.016 183.391 107.062 183.391C108.078 183.391 108.88 183.773 109.469 184.539C110.062 185.305 110.359 186.37 110.359 187.734V187.867ZM108.914 187.703C108.914 186.75 108.711 185.997 108.305 185.445C107.898 184.893 107.341 184.617 106.633 184.617C105.758 184.617 105.102 185.005 104.664 185.781V189.82C105.096 190.591 105.758 190.977 106.648 190.977C107.341 190.977 107.891 190.703 108.297 190.156C108.708 189.604 108.914 188.786 108.914 187.703ZM117.422 192C117.339 191.833 117.271 191.536 117.219 191.109C116.547 191.807 115.745 192.156 114.812 192.156C113.979 192.156 113.294 191.922 112.758 191.453C112.227 190.979 111.961 190.38 111.961 189.656C111.961 188.776 112.294 188.094 112.961 187.609C113.633 187.12 114.576 186.875 115.789 186.875H117.195V186.211C117.195 185.706 117.044 185.305 116.742 185.008C116.44 184.706 115.995 184.555 115.406 184.555C114.891 184.555 114.458 184.685 114.109 184.945C113.76 185.206 113.586 185.521 113.586 185.891H112.133C112.133 185.469 112.281 185.062 112.578 184.672C112.88 184.276 113.286 183.964 113.797 183.734C114.312 183.505 114.878 183.391 115.492 183.391C116.466 183.391 117.229 183.635 117.781 184.125C118.333 184.609 118.62 185.279 118.641 186.133V190.023C118.641 190.799 118.74 191.417 118.938 191.875V192H117.422ZM115.023 190.898C115.477 190.898 115.906 190.781 116.312 190.547C116.719 190.312 117.013 190.008 117.195 189.633V187.898H116.062C114.292 187.898 113.406 188.417 113.406 189.453C113.406 189.906 113.557 190.26 113.859 190.516C114.161 190.771 114.549 190.898 115.023 190.898ZM124.992 184.844C124.773 184.807 124.536 184.789 124.281 184.789C123.333 184.789 122.69 185.193 122.352 186V192H120.906V183.547H122.312L122.336 184.523C122.81 183.768 123.482 183.391 124.352 183.391C124.633 183.391 124.846 183.427 124.992 183.5V184.844ZM129.68 192.156C128.534 192.156 127.602 191.781 126.883 191.031C126.164 190.276 125.805 189.268 125.805 188.008V187.742C125.805 186.904 125.964 186.156 126.281 185.5C126.604 184.839 127.052 184.323 127.625 183.953C128.203 183.578 128.828 183.391 129.5 183.391C130.599 183.391 131.453 183.753 132.062 184.477C132.672 185.201 132.977 186.237 132.977 187.586V188.188H127.25C127.271 189.021 127.513 189.695 127.977 190.211C128.445 190.721 129.039 190.977 129.758 190.977C130.268 190.977 130.701 190.872 131.055 190.664C131.409 190.456 131.719 190.18 131.984 189.836L132.867 190.523C132.159 191.612 131.096 192.156 129.68 192.156ZM129.5 184.578C128.917 184.578 128.427 184.792 128.031 185.219C127.635 185.641 127.391 186.234 127.297 187H131.531V186.891C131.49 186.156 131.292 185.589 130.938 185.188C130.583 184.781 130.104 184.578 129.5 184.578ZM138.047 190.977C138.562 190.977 139.013 190.82 139.398 190.508C139.784 190.195 139.997 189.805 140.039 189.336H141.406C141.38 189.82 141.214 190.281 140.906 190.719C140.599 191.156 140.188 191.505 139.672 191.766C139.161 192.026 138.62 192.156 138.047 192.156C136.896 192.156 135.979 191.773 135.297 191.008C134.62 190.237 134.281 189.185 134.281 187.852V187.609C134.281 186.786 134.432 186.055 134.734 185.414C135.036 184.773 135.469 184.276 136.031 183.922C136.599 183.568 137.268 183.391 138.039 183.391C138.987 183.391 139.773 183.674 140.398 184.242C141.029 184.81 141.365 185.547 141.406 186.453H140.039C139.997 185.906 139.789 185.458 139.414 185.109C139.044 184.755 138.586 184.578 138.039 184.578C137.305 184.578 136.734 184.844 136.328 185.375C135.927 185.901 135.727 186.664 135.727 187.664V187.938C135.727 188.911 135.927 189.661 136.328 190.188C136.729 190.714 137.302 190.977 138.047 190.977ZM146.539 192.156C145.393 192.156 144.461 191.781 143.742 191.031C143.023 190.276 142.664 189.268 142.664 188.008V187.742C142.664 186.904 142.823 186.156 143.141 185.5C143.464 184.839 143.911 184.323 144.484 183.953C145.062 183.578 145.688 183.391 146.359 183.391C147.458 183.391 148.312 183.753 148.922 184.477C149.531 185.201 149.836 186.237 149.836 187.586V188.188H144.109C144.13 189.021 144.372 189.695 144.836 190.211C145.305 190.721 145.898 190.977 146.617 190.977C147.128 190.977 147.56 190.872 147.914 190.664C148.268 190.456 148.578 190.18 148.844 189.836L149.727 190.523C149.018 191.612 147.956 192.156 146.539 192.156ZM146.359 184.578C145.776 184.578 145.286 184.792 144.891 185.219C144.495 185.641 144.25 186.234 144.156 187H148.391V186.891C148.349 186.156 148.151 185.589 147.797 185.188C147.443 184.781 146.964 184.578 146.359 184.578ZM155.602 184.844C155.383 184.807 155.146 184.789 154.891 184.789C153.943 184.789 153.299 185.193 152.961 186V192H151.516V183.547H152.922L152.945 184.523C153.419 183.768 154.091 183.391 154.961 183.391C155.242 183.391 155.456 183.427 155.602 183.5V184.844ZM161.844 192C161.76 191.833 161.693 191.536 161.641 191.109C160.969 191.807 160.167 192.156 159.234 192.156C158.401 192.156 157.716 191.922 157.18 191.453C156.648 190.979 156.383 190.38 156.383 189.656C156.383 188.776 156.716 188.094 157.383 187.609C158.055 187.12 158.997 186.875 160.211 186.875H161.617V186.211C161.617 185.706 161.466 185.305 161.164 185.008C160.862 184.706 160.417 184.555 159.828 184.555C159.312 184.555 158.88 184.685 158.531 184.945C158.182 185.206 158.008 185.521 158.008 185.891H156.555C156.555 185.469 156.703 185.062 157 184.672C157.302 184.276 157.708 183.964 158.219 183.734C158.734 183.505 159.299 183.391 159.914 183.391C160.888 183.391 161.651 183.635 162.203 184.125C162.755 184.609 163.042 185.279 163.062 186.133V190.023C163.062 190.799 163.161 191.417 163.359 191.875V192H161.844ZM159.445 190.898C159.898 190.898 160.328 190.781 160.734 190.547C161.141 190.312 161.435 190.008 161.617 189.633V187.898H160.484C158.714 187.898 157.828 188.417 157.828 189.453C157.828 189.906 157.979 190.26 158.281 190.516C158.583 190.771 158.971 190.898 159.445 190.898ZM162.844 180.25C162.844 180.812 162.682 181.268 162.359 181.617C162.042 181.966 161.643 182.141 161.164 182.141C160.951 182.141 160.766 182.115 160.609 182.062C160.453 182.01 160.247 181.904 159.992 181.742C159.742 181.581 159.56 181.484 159.445 181.453C159.336 181.417 159.208 181.398 159.062 181.398C158.849 181.398 158.667 181.482 158.516 181.648C158.365 181.81 158.289 182.018 158.289 182.273L157.32 182.219C157.32 181.661 157.477 181.201 157.789 180.836C158.107 180.471 158.508 180.289 158.992 180.289C159.174 180.289 159.339 180.315 159.484 180.367C159.63 180.419 159.828 180.521 160.078 180.672C160.328 180.823 160.518 180.922 160.648 180.969C160.784 181.016 160.932 181.039 161.094 181.039C161.318 181.039 161.503 180.951 161.648 180.773C161.799 180.596 161.875 180.391 161.875 180.156L162.844 180.25ZM164.945 187.695C164.945 186.867 165.107 186.122 165.43 185.461C165.758 184.799 166.211 184.289 166.789 183.93C167.372 183.57 168.036 183.391 168.781 183.391C169.932 183.391 170.862 183.789 171.57 184.586C172.284 185.383 172.641 186.443 172.641 187.766V187.867C172.641 188.69 172.482 189.43 172.164 190.086C171.852 190.737 171.401 191.245 170.812 191.609C170.229 191.974 169.557 192.156 168.797 192.156C167.651 192.156 166.721 191.758 166.008 190.961C165.299 190.164 164.945 189.109 164.945 187.797V187.695ZM166.398 187.867C166.398 188.805 166.615 189.557 167.047 190.125C167.484 190.693 168.068 190.977 168.797 190.977C169.531 190.977 170.115 190.69 170.547 190.117C170.979 189.539 171.195 188.732 171.195 187.695C171.195 186.768 170.974 186.018 170.531 185.445C170.094 184.867 169.51 184.578 168.781 184.578C168.068 184.578 167.492 184.862 167.055 185.43C166.617 185.997 166.398 186.81 166.398 187.867ZM183.641 192C183.557 191.833 183.49 191.536 183.438 191.109C182.766 191.807 181.964 192.156 181.031 192.156C180.198 192.156 179.513 191.922 178.977 191.453C178.445 190.979 178.18 190.38 178.18 189.656C178.18 188.776 178.513 188.094 179.18 187.609C179.852 187.12 180.794 186.875 182.008 186.875H183.414V186.211C183.414 185.706 183.263 185.305 182.961 185.008C182.659 184.706 182.214 184.555 181.625 184.555C181.109 184.555 180.677 184.685 180.328 184.945C179.979 185.206 179.805 185.521 179.805 185.891H178.352C178.352 185.469 178.5 185.062 178.797 184.672C179.099 184.276 179.505 183.964 180.016 183.734C180.531 183.505 181.096 183.391 181.711 183.391C182.685 183.391 183.448 183.635 184 184.125C184.552 184.609 184.839 185.279 184.859 186.133V190.023C184.859 190.799 184.958 191.417 185.156 191.875V192H183.641ZM181.242 190.898C181.695 190.898 182.125 190.781 182.531 190.547C182.938 190.312 183.232 190.008 183.414 189.633V187.898H182.281C180.51 187.898 179.625 188.417 179.625 189.453C179.625 189.906 179.776 190.26 180.078 190.516C180.38 190.771 180.768 190.898 181.242 190.898ZM186.773 187.703C186.773 186.375 187.078 185.326 187.688 184.555C188.297 183.779 189.115 183.391 190.141 183.391C191.141 183.391 191.93 183.727 192.508 184.398L192.57 183.547H193.898V195.25H192.453V191.219C191.87 191.844 191.094 192.156 190.125 192.156C189.104 192.156 188.289 191.76 187.68 190.969C187.076 190.172 186.773 189.117 186.773 187.805V187.703ZM188.219 187.867C188.219 188.836 188.422 189.596 188.828 190.148C189.24 190.701 189.792 190.977 190.484 190.977C191.344 190.977 192 190.596 192.453 189.836V185.695C191.995 184.951 191.344 184.578 190.5 184.578C189.802 184.578 189.247 184.857 188.836 185.414C188.424 185.966 188.219 186.784 188.219 187.867ZM201.438 191.164C200.875 191.826 200.049 192.156 198.961 192.156C198.06 192.156 197.372 191.896 196.898 191.375C196.43 190.849 196.193 190.073 196.188 189.047V183.547H197.633V189.008C197.633 190.289 198.154 190.93 199.195 190.93C200.299 190.93 201.034 190.518 201.398 189.695V183.547H202.844V192H201.469L201.438 191.164ZM206.617 192H205.172V183.547H206.617V192ZM205.055 181.305C205.055 181.07 205.125 180.872 205.266 180.711C205.411 180.549 205.625 180.469 205.906 180.469C206.188 180.469 206.401 180.549 206.547 180.711C206.693 180.872 206.766 181.07 206.766 181.305C206.766 181.539 206.693 181.734 206.547 181.891C206.401 182.047 206.188 182.125 205.906 182.125C205.625 182.125 205.411 182.047 205.266 181.891C205.125 181.734 205.055 181.539 205.055 181.305Z" fill="black" fill-opacity="0.8"/>
<rect width="184" height="175" transform="translate(8)" fill="white"/>
<path d="M168.549 81.494C174.142 122.754 154.993 151.835 107.313 156.714C59.6325 161.593 34.1378 115.267 32.1105 95.4554C28.2542 57.7695 47.7 16.0088 93.347 20.2351C138.994 24.4615 162.956 40.2342 168.549 81.494Z" fill="#E7F5FD"/>
<path d="M97.0229 61.5953C95.903 60.5696 94.4348 60.0001 92.9107 60.0001H64.8501C62.1714 60.0001 60 62.1546 60 64.8123V132H139.5L147 71.9725C147 69.3148 144.829 67.1603 142.15 67.1603H103.099L97.0229 61.5953Z" fill="#C4C4C4" stroke="#003A5E" stroke-linecap="round" stroke-linejoin="round"/>
<path d="M91.9478 31.2305L153.719 38.3982C154.816 38.5255 155.602 39.5182 155.475 40.6154L146.849 114.955C146.721 116.052 145.729 116.838 144.632 116.711L97.0282 111.187L82.8372 92.3935L89.7306 32.9867C89.8579 31.8895 90.8506 31.1032 91.9478 31.2305Z" fill="white"/>
<path d="M82.8372 92.3935L89.7306 32.9867C89.8579 31.8895 90.8506 31.1032 91.9478 31.2305L153.719 38.3982C154.816 38.5255 155.602 39.5182 155.475 40.6154L146.849 114.955C146.721 116.052 145.729 116.838 144.632 116.711L97.0282 111.187M82.8372 92.3935L97.0282 111.187M82.8372 92.3935L96.8267 94.0168C97.9147 94.1431 98.6988 95.1209 98.5855 96.2103L97.0282 111.187" stroke="#003A5E" stroke-linecap="round" stroke-linejoin="round"/>
<path d="M117.313 84.146L92.1757 81.2291" stroke="#003A5E" stroke-linecap="round" stroke-linejoin="round"/>
<path d="M116.416 91.8806L91.2783 88.9637" stroke="#003A5E" stroke-linecap="round" stroke-linejoin="round"/>
<path d="M115.349 101.079C115.623 101.111 115.871 100.914 115.903 100.64C115.935 100.365 115.738 100.117 115.464 100.085L115.349 101.079ZM99.0277 98.1782L98.531 98.1205L98.4158 99.1139L98.9124 99.1715L99.0277 98.1782ZM115.464 100.085L99.0277 98.1782L98.9124 99.1715L115.349 101.079L115.464 100.085Z" fill="#003A5E"/>
<path d="M141.507 84.9936L92.1985 79.2721" stroke="#003A5E" stroke-linecap="round" stroke-linejoin="round"/>
<path d="M140.497 93.6951L91.1888 87.9735" stroke="#003A5E" stroke-linecap="round" stroke-linejoin="round"/>
<path d="M139.487 102.396L90.1791 96.675" stroke="#003A5E" stroke-linecap="round" stroke-linejoin="round"/>
<path d="M142.516 76.2922L93.2082 70.5707" stroke="#003A5E" stroke-linecap="round" stroke-linejoin="round"/>
<path d="M143.526 67.5907L94.2179 61.8692" stroke="#003A5E" stroke-linecap="round" stroke-linejoin="round"/>
<path d="M144.536 58.8892L95.2275 53.1677" stroke="#003A5E" stroke-linecap="round" stroke-linejoin="round"/>
<path d="M145.545 50.1878L96.2372 44.4663" stroke="#003A5E" stroke-linecap="round" stroke-linejoin="round"/>
<path d="M88.0059 34.3426L149.777 41.5102C150.874 41.6376 151.66 42.6302 151.533 43.7274L142.907 118.067C142.78 119.164 141.787 119.951 140.69 119.823L93.0863 114.3L78.8953 95.5056L85.7887 36.0987C85.916 35.0015 86.9087 34.2153 88.0059 34.3426Z" fill="white"/>
<path d="M78.8953 95.5056L85.7887 36.0987C85.916 35.0015 86.9087 34.2153 88.0059 34.3426L149.777 41.5102C150.874 41.6376 151.66 42.6302 151.533 43.7274L142.907 118.067C142.78 119.164 141.787 119.951 140.69 119.823L93.0863 114.3M78.8953 95.5056L93.0863 114.3M78.8953 95.5056L92.8848 97.1289C93.9728 97.2551 94.7569 98.233 94.6436 99.3224L93.0863 114.3" stroke="#003A5E" stroke-linecap="round" stroke-linejoin="round"/>
<path d="M113.371 87.258L88.2339 84.3412" stroke="#003A5E" stroke-linecap="round" stroke-linejoin="round"/>
<path d="M112.474 94.9926L87.3364 92.0758" stroke="#003A5E" stroke-linecap="round" stroke-linejoin="round"/>
<path d="M111.407 104.191C111.681 104.223 111.929 104.026 111.961 103.752C111.993 103.477 111.796 103.229 111.522 103.197L111.407 104.191ZM95.0858 101.29L94.5891 101.233L94.4739 102.226L94.9706 102.284L95.0858 101.29ZM111.522 103.197L95.0858 101.29L94.9706 102.284L111.407 104.191L111.522 103.197Z" fill="#003A5E"/>
<path d="M137.565 88.1057L88.2566 82.3841" stroke="#003A5E" stroke-linecap="round" stroke-linejoin="round"/>
<path d="M136.555 96.8071L87.2469 91.0856" stroke="#003A5E" stroke-linecap="round" stroke-linejoin="round"/>
<path d="M135.545 105.509L86.2373 99.787" stroke="#003A5E" stroke-linecap="round" stroke-linejoin="round"/>
<path d="M138.574 79.4042L89.2663 73.6827" stroke="#003A5E" stroke-linecap="round" stroke-linejoin="round"/>
<path d="M139.584 70.7028L90.276 64.9813" stroke="#003A5E" stroke-linecap="round" stroke-linejoin="round"/>
<path d="M140.594 62.0013L91.2856 56.2798" stroke="#003A5E" stroke-linecap="round" stroke-linejoin="round"/>
<path d="M138.741 123.535L72.9964 115.907L81.853 39.5804C81.9803 38.4832 82.973 37.6969 84.0702 37.8242L131.674 43.3479L145.865 62.1419L138.741 123.535Z" fill="white"/>
<path d="M145.865 62.1419L138.741 123.535L72.9964 115.907L81.853 39.5804C81.9803 38.4832 82.973 37.6969 84.0702 37.8242L131.674 43.3479M145.865 62.1419L131.674 43.3479M145.865 62.1419L131.875 60.5186C130.787 60.3923 130.003 59.4145 130.116 58.3251L131.674 43.3479" stroke="#003A5E" stroke-linecap="round" stroke-linejoin="round"/>
<path d="M111.389 70.3895L136.526 73.3063" stroke="#003A5E" stroke-linecap="round" stroke-linejoin="round"/>
<path d="M112.286 62.6548L137.423 65.5717" stroke="#003A5E" stroke-linecap="round" stroke-linejoin="round"/>
<path d="M113.353 53.4567C113.079 53.4249 112.831 53.6215 112.799 53.8958C112.767 54.1701 112.964 54.4182 113.238 54.4501L113.353 53.4567ZM129.674 56.3572L130.171 56.4149L130.286 55.4215L129.789 55.3639L129.674 56.3572ZM113.238 54.4501L129.674 56.3572L129.789 55.3639L113.353 53.4567L113.238 54.4501Z" fill="#003A5E"/>
<path fill-rule="evenodd" clip-rule="evenodd" d="M89.0067 66.4251L89.0067 66.4249C87.73 65.4793 87.4635 63.6815 88.4114 62.41L96.4231 51.6652C97.3714 50.3935 99.1751 50.1294 100.452 51.0753C101.729 52.0211 101.996 53.8189 101.047 55.0904L93.0357 65.8352C92.0877 67.1067 90.2837 67.3707 89.0067 66.4251Z" fill="#F8C824"/>
<path fill-rule="evenodd" clip-rule="evenodd" d="M105.218 68.3059C103.758 68.934 102.063 68.2641 101.431 66.8093L96.0924 54.5154C95.4607 53.0607 96.1319 51.3716 97.5913 50.7433C99.0509 50.115 100.746 50.7851 101.378 52.2401L106.716 64.534C107.348 65.9888 106.677 67.6778 105.218 68.3059Z" fill="#3D81B4"/>
<path fill-rule="evenodd" clip-rule="evenodd" d="M101.283 52.0427C101.267 52.0129 101.252 51.9828 101.236 51.9537C101.207 51.9032 101.175 51.8552 101.144 51.8072C101.122 51.7748 101.102 51.7418 101.08 51.7103C101.051 51.6708 101.021 51.6336 100.991 51.596C100.961 51.5584 100.932 51.5204 100.9 51.484C100.874 51.4546 100.846 51.4277 100.819 51.3994C100.78 51.3581 100.74 51.3164 100.698 51.2771C100.673 51.254 100.647 51.233 100.621 51.2108C100.574 51.1702 100.527 51.1301 100.477 51.0921C100.448 51.0703 100.417 51.0501 100.387 51.0292C100.34 50.996 100.293 50.9639 100.245 50.9341C100.206 50.9104 100.167 50.8889 100.127 50.8671C100.087 50.8445 100.046 50.8223 100.004 50.8017C99.9572 50.7788 99.9098 50.7581 99.862 50.7376C99.8254 50.7222 99.7888 50.7069 99.7518 50.6929C99.7007 50.6735 99.6486 50.6563 99.5964 50.6398C99.5599 50.6285 99.5233 50.6173 99.4863 50.6073C99.4353 50.5934 99.3838 50.5817 99.332 50.5707C99.2909 50.5619 99.2497 50.5537 99.2086 50.5469C99.1617 50.539 99.1143 50.5327 99.0668 50.5272C99.0194 50.5217 98.9718 50.5169 98.9243 50.5139C98.8825 50.511 98.8408 50.5097 98.7987 50.5088C98.7458 50.5076 98.693 50.5073 98.6402 50.5091C98.6019 50.5104 98.5637 50.5129 98.5255 50.5155C98.4709 50.5196 98.4163 50.5245 98.3619 50.5316C98.3229 50.5368 98.2837 50.5433 98.2446 50.5499C98.1934 50.559 98.1422 50.5682 98.0918 50.5798C98.0464 50.5903 98.0014 50.6025 97.9563 50.6152C97.913 50.6274 97.87 50.6393 97.8272 50.6536C97.7733 50.6715 97.7198 50.692 97.6662 50.7134C97.6325 50.727 97.5984 50.7397 97.565 50.7543C97.5075 50.7798 97.4521 50.8082 97.3971 50.8367C97.3671 50.8525 97.3368 50.8669 97.3074 50.8837C97.257 50.9122 97.209 50.9438 97.161 50.9751C97.1284 50.9963 97.0951 51.0163 97.0633 51.0388C97.0239 51.0669 96.987 51.0973 96.9492 51.127C96.9113 51.157 96.8728 51.186 96.8364 51.2179C96.8073 51.2434 96.7802 51.2709 96.7521 51.2976C96.7104 51.3371 96.6684 51.3766 96.6288 51.4192C96.6061 51.4437 96.5848 51.4696 96.563 51.495C96.5221 51.5419 96.4817 51.5893 96.4435 51.6392C95.8367 52.437 95.6657 53.528 96.0936 54.5129L98.0749 59.0758L101.048 55.0878C101.69 54.227 101.774 53.1259 101.366 52.2106C101.34 52.153 101.311 52.0976 101.283 52.0427Z" fill="#72AC42"/>
<path d="M86.5219 75.3428L135.83 81.0643" stroke="#003A5E" stroke-linecap="round" stroke-linejoin="round"/>
<path d="M85.6244 83.0774L134.933 88.7989" stroke="#003A5E" stroke-linecap="round" stroke-linejoin="round"/>
<path d="M84.727 90.812L134.035 96.5336" stroke="#003A5E" stroke-linecap="round" stroke-linejoin="round"/>
<path d="M83.8293 98.5467L133.138 104.268" stroke="#003A5E" stroke-linecap="round" stroke-linejoin="round"/>
<path d="M82.9319 106.281L132.24 112.003" stroke="#003A5E" stroke-linecap="round" stroke-linejoin="round"/>
<path d="M64.2212 78.6843C64.3859 76.6041 66.122 75 68.2088 75H147.171C149.504 75 151.342 76.9894 151.158 79.3157L147.133 130.158C147.051 131.198 146.183 132 145.139 132H62.1646C60.9978 132 60.0788 131.005 60.1708 129.842L64.2212 78.6843Z" fill="white" stroke="#003A5E" stroke-linecap="round" stroke-linejoin="round"/>
</svg>
