<svg width="184" height="175" viewBox="0 0 184 175" fill="none" xmlns="http://www.w3.org/2000/svg">
<rect width="184" height="175" fill="white"/>
<path d="M160.549 81.494C166.142 122.754 146.993 151.835 99.3126 156.714C51.6325 161.593 26.1378 115.267 24.1105 95.4554C20.2542 57.7695 39.7 16.0088 85.347 20.2351C130.994 24.4615 154.956 40.2342 160.549 81.494Z" fill="#E7F5FD"/>
<path d="M89.0229 61.5953C87.903 60.5696 86.4348 60.0001 84.9107 60.0001H56.8501C54.1714 60.0001 52 62.1546 52 64.8123V132H131.5L139 71.9725C139 69.3148 136.829 67.1603 134.15 67.1603H95.0991L89.0229 61.5953Z" fill="#C4C4C4" stroke="#003A5E" stroke-linecap="round" stroke-linejoin="round"/>
<path d="M83.9478 31.2305L145.719 38.3982C146.816 38.5255 147.602 39.5182 147.475 40.6154L138.849 114.955C138.721 116.052 137.729 116.838 136.632 116.711L89.0282 111.187L74.8372 92.3935L81.7306 32.9867C81.8579 31.8895 82.8506 31.1032 83.9478 31.2305Z" fill="white"/>
<path d="M74.8372 92.3935L81.7306 32.9867C81.8579 31.8895 82.8506 31.1032 83.9478 31.2305L145.719 38.3982C146.816 38.5255 147.602 39.5182 147.475 40.6154L138.849 114.955C138.721 116.052 137.729 116.838 136.632 116.711L89.0282 111.187M74.8372 92.3935L89.0282 111.187M74.8372 92.3935L88.8267 94.0168C89.9147 94.1431 90.6988 95.1209 90.5855 96.2103L89.0282 111.187" stroke="#003A5E" stroke-linecap="round" stroke-linejoin="round"/>
<path d="M109.313 84.146L84.1757 81.2291" stroke="#003A5E" stroke-linecap="round" stroke-linejoin="round"/>
<path d="M108.416 91.8806L83.2783 88.9637" stroke="#003A5E" stroke-linecap="round" stroke-linejoin="round"/>
<path d="M107.349 101.079C107.623 101.111 107.871 100.914 107.903 100.64C107.935 100.365 107.738 100.117 107.464 100.085L107.349 101.079ZM91.0277 98.1782L90.531 98.1205L90.4158 99.1139L90.9124 99.1715L91.0277 98.1782ZM107.464 100.085L91.0277 98.1782L90.9124 99.1715L107.349 101.079L107.464 100.085Z" fill="#003A5E"/>
<path d="M133.507 84.9936L84.1985 79.2721" stroke="#003A5E" stroke-linecap="round" stroke-linejoin="round"/>
<path d="M132.497 93.6951L83.1888 87.9735" stroke="#003A5E" stroke-linecap="round" stroke-linejoin="round"/>
<path d="M131.487 102.396L82.1791 96.675" stroke="#003A5E" stroke-linecap="round" stroke-linejoin="round"/>
<path d="M134.516 76.2922L85.2082 70.5707" stroke="#003A5E" stroke-linecap="round" stroke-linejoin="round"/>
<path d="M135.526 67.5907L86.2179 61.8692" stroke="#003A5E" stroke-linecap="round" stroke-linejoin="round"/>
<path d="M136.536 58.8892L87.2275 53.1677" stroke="#003A5E" stroke-linecap="round" stroke-linejoin="round"/>
<path d="M137.545 50.1878L88.2372 44.4663" stroke="#003A5E" stroke-linecap="round" stroke-linejoin="round"/>
<path d="M80.0059 34.3426L141.777 41.5102C142.874 41.6376 143.66 42.6302 143.533 43.7274L134.907 118.067C134.78 119.164 133.787 119.951 132.69 119.823L85.0863 114.3L70.8953 95.5056L77.7887 36.0987C77.916 35.0015 78.9087 34.2153 80.0059 34.3426Z" fill="white"/>
<path d="M70.8953 95.5056L77.7887 36.0987C77.916 35.0015 78.9087 34.2153 80.0059 34.3426L141.777 41.5102C142.874 41.6376 143.66 42.6302 143.533 43.7274L134.907 118.067C134.78 119.164 133.787 119.951 132.69 119.823L85.0863 114.3M70.8953 95.5056L85.0863 114.3M70.8953 95.5056L84.8848 97.1289C85.9728 97.2551 86.7569 98.233 86.6436 99.3224L85.0863 114.3" stroke="#003A5E" stroke-linecap="round" stroke-linejoin="round"/>
<path d="M105.371 87.258L80.2339 84.3412" stroke="#003A5E" stroke-linecap="round" stroke-linejoin="round"/>
<path d="M104.474 94.9926L79.3364 92.0758" stroke="#003A5E" stroke-linecap="round" stroke-linejoin="round"/>
<path d="M103.407 104.191C103.681 104.223 103.929 104.026 103.961 103.752C103.993 103.477 103.796 103.229 103.522 103.197L103.407 104.191ZM87.0858 101.29L86.5891 101.233L86.4739 102.226L86.9706 102.284L87.0858 101.29ZM103.522 103.197L87.0858 101.29L86.9706 102.284L103.407 104.191L103.522 103.197Z" fill="#003A5E"/>
<path d="M129.565 88.1057L80.2566 82.3841" stroke="#003A5E" stroke-linecap="round" stroke-linejoin="round"/>
<path d="M128.555 96.8071L79.2469 91.0856" stroke="#003A5E" stroke-linecap="round" stroke-linejoin="round"/>
<path d="M127.545 105.509L78.2373 99.787" stroke="#003A5E" stroke-linecap="round" stroke-linejoin="round"/>
<path d="M130.574 79.4042L81.2663 73.6827" stroke="#003A5E" stroke-linecap="round" stroke-linejoin="round"/>
<path d="M131.584 70.7028L82.276 64.9813" stroke="#003A5E" stroke-linecap="round" stroke-linejoin="round"/>
<path d="M132.594 62.0013L83.2856 56.2798" stroke="#003A5E" stroke-linecap="round" stroke-linejoin="round"/>
<path d="M130.741 123.535L64.9964 115.907L73.853 39.5804C73.9803 38.4832 74.973 37.6969 76.0702 37.8242L123.674 43.3479L137.865 62.1419L130.741 123.535Z" fill="white"/>
<path d="M137.865 62.1419L130.741 123.535L64.9964 115.907L73.853 39.5804C73.9803 38.4832 74.973 37.6969 76.0702 37.8242L123.674 43.3479M137.865 62.1419L123.674 43.3479M137.865 62.1419L123.875 60.5186C122.787 60.3923 122.003 59.4145 122.116 58.3251L123.674 43.3479" stroke="#003A5E" stroke-linecap="round" stroke-linejoin="round"/>
<path d="M103.389 70.3895L128.526 73.3063" stroke="#003A5E" stroke-linecap="round" stroke-linejoin="round"/>
<path d="M104.286 62.6548L129.423 65.5717" stroke="#003A5E" stroke-linecap="round" stroke-linejoin="round"/>
<path d="M105.353 53.4567C105.079 53.4249 104.831 53.6215 104.799 53.8958C104.767 54.1701 104.964 54.4182 105.238 54.4501L105.353 53.4567ZM121.674 56.3572L122.171 56.4149L122.286 55.4215L121.789 55.3639L121.674 56.3572ZM105.238 54.4501L121.674 56.3572L121.789 55.3639L105.353 53.4567L105.238 54.4501Z" fill="#003A5E"/>
<path fill-rule="evenodd" clip-rule="evenodd" d="M81.0067 66.4251L81.0067 66.4249C79.73 65.4793 79.4635 63.6815 80.4114 62.41L88.4231 51.6652C89.3714 50.3935 91.1751 50.1294 92.4521 51.0753C93.7291 52.0211 93.9956 53.8189 93.0474 55.0904L85.0357 65.8352C84.0877 67.1067 82.2837 67.3707 81.0067 66.4251Z" fill="#F8C824"/>
<path fill-rule="evenodd" clip-rule="evenodd" d="M97.2176 68.3059C95.758 68.934 94.0626 68.2641 93.4307 66.8093L88.0924 54.5154C87.4607 53.0607 88.1319 51.3716 89.5913 50.7433C91.0509 50.115 92.7462 50.7851 93.3781 52.2401L98.7165 64.534C99.3483 65.9888 98.6772 67.6778 97.2176 68.3059Z" fill="#3D81B4"/>
<path fill-rule="evenodd" clip-rule="evenodd" d="M93.2825 52.0427C93.2668 52.0129 93.2524 51.9828 93.2358 51.9537C93.2067 51.9032 93.1749 51.8552 93.1436 51.8072C93.1222 51.7748 93.1023 51.7418 93.0798 51.7103C93.0515 51.6708 93.0207 51.6336 92.9906 51.596C92.9608 51.5584 92.9318 51.5204 92.8999 51.484C92.8739 51.4546 92.8461 51.4277 92.8193 51.3994C92.7797 51.3581 92.7404 51.3164 92.6978 51.2771C92.6731 51.254 92.6466 51.233 92.621 51.2108C92.5741 51.1702 92.5267 51.1301 92.4767 51.0921C92.4476 51.0703 92.4173 51.0501 92.3873 51.0292C92.3403 50.996 92.293 50.9639 92.2446 50.9341C92.2062 50.9104 92.1668 50.8889 92.1274 50.8671C92.0867 50.8445 92.0457 50.8223 92.0039 50.8017C91.9572 50.7788 91.9098 50.7581 91.862 50.7376C91.8254 50.7222 91.7888 50.7069 91.7518 50.6929C91.7007 50.6735 91.6486 50.6563 91.5964 50.6398C91.5599 50.6285 91.5233 50.6173 91.4863 50.6073C91.4353 50.5934 91.3838 50.5817 91.332 50.5707C91.2909 50.5619 91.2497 50.5537 91.2086 50.5469C91.1617 50.539 91.1143 50.5327 91.0668 50.5272C91.0194 50.5217 90.9718 50.5169 90.9243 50.5139C90.8825 50.511 90.8408 50.5097 90.7987 50.5088C90.7458 50.5076 90.693 50.5073 90.6402 50.5091C90.6019 50.5104 90.5637 50.5129 90.5255 50.5155C90.4709 50.5196 90.4163 50.5245 90.3619 50.5316C90.3229 50.5368 90.2837 50.5433 90.2446 50.5499C90.1934 50.559 90.1422 50.5682 90.0918 50.5798C90.0464 50.5903 90.0014 50.6025 89.9563 50.6152C89.913 50.6274 89.87 50.6393 89.8272 50.6536C89.7733 50.6715 89.7198 50.692 89.6662 50.7134C89.6325 50.727 89.5984 50.7397 89.565 50.7543C89.5075 50.7798 89.4521 50.8082 89.3971 50.8367C89.3671 50.8525 89.3368 50.8669 89.3074 50.8837C89.257 50.9122 89.209 50.9438 89.161 50.9751C89.1284 50.9963 89.0951 51.0163 89.0633 51.0388C89.0239 51.0669 88.987 51.0973 88.9492 51.127C88.9113 51.157 88.8728 51.186 88.8364 51.2179C88.8073 51.2434 88.7802 51.2709 88.7521 51.2976C88.7104 51.3371 88.6684 51.3766 88.6288 51.4192C88.6061 51.4437 88.5848 51.4696 88.563 51.495C88.5221 51.5419 88.4817 51.5893 88.4435 51.6392C87.8367 52.437 87.6657 53.528 88.0936 54.5129L90.0749 59.0758L93.0484 55.0878C93.6902 54.227 93.7736 53.1259 93.3658 52.2106C93.34 52.153 93.3113 52.0976 93.2825 52.0427Z" fill="#72AC42"/>
<path d="M78.5219 75.3428L127.83 81.0643" stroke="#003A5E" stroke-linecap="round" stroke-linejoin="round"/>
<path d="M77.6244 83.0774L126.933 88.7989" stroke="#003A5E" stroke-linecap="round" stroke-linejoin="round"/>
<path d="M76.727 90.812L126.035 96.5336" stroke="#003A5E" stroke-linecap="round" stroke-linejoin="round"/>
<path d="M75.8293 98.5467L125.138 104.268" stroke="#003A5E" stroke-linecap="round" stroke-linejoin="round"/>
<path d="M74.9319 106.281L124.24 112.003" stroke="#003A5E" stroke-linecap="round" stroke-linejoin="round"/>
<path d="M56.2212 78.6843C56.3859 76.6041 58.122 75 60.2088 75H139.171C141.504 75 143.342 76.9894 143.158 79.3157L139.133 130.158C139.051 131.198 138.183 132 137.139 132H54.1646C52.9978 132 52.0788 131.005 52.1708 129.842L56.2212 78.6843Z" fill="white" stroke="#003A5E" stroke-linecap="round" stroke-linejoin="round"/>
</svg>
